<svg width="1005" height="23" viewBox="0 0 1005 23" fill="none" xmlns="http://www.w3.org/2000/svg">
<path d="M739.404 18V5.31H741.726V10.602H748.224V5.31H750.546V18H748.224V12.528H741.726V18H739.404ZM757.267 18.18C756.331 18.18 755.521 17.988 754.837 17.604C754.153 17.22 753.619 16.674 753.235 15.966C752.863 15.258 752.677 14.418 752.677 13.446C752.677 12.474 752.863 11.64 753.235 10.944C753.619 10.236 754.153 9.69 754.837 9.306C755.521 8.922 756.331 8.73 757.267 8.73C758.203 8.73 759.013 8.922 759.697 9.306C760.393 9.69 760.927 10.236 761.299 10.944C761.683 11.64 761.875 12.474 761.875 13.446C761.875 14.418 761.683 15.258 761.299 15.966C760.927 16.674 760.393 17.22 759.697 17.604C759.013 17.988 758.203 18.18 757.267 18.18ZM757.267 16.452C757.975 16.452 758.539 16.206 758.959 15.714C759.379 15.21 759.589 14.454 759.589 13.446C759.589 12.438 759.379 11.688 758.959 11.196C758.539 10.704 757.975 10.458 757.267 10.458C756.559 10.458 755.995 10.704 755.575 11.196C755.155 11.688 754.945 12.438 754.945 13.446C754.945 14.454 755.155 15.21 755.575 15.714C755.995 16.206 756.559 16.452 757.267 16.452ZM763.816 18V11.178C763.816 10.806 763.804 10.428 763.78 10.044C763.756 9.66 763.72 9.282 763.672 8.91H765.85L766.03 10.71H765.814C766.066 10.086 766.45 9.6 766.966 9.252C767.494 8.904 768.118 8.73 768.838 8.73C769.558 8.73 770.152 8.904 770.62 9.252C771.1 9.588 771.436 10.116 771.628 10.836H771.34C771.592 10.188 772.006 9.678 772.582 9.306C773.158 8.922 773.818 8.73 774.562 8.73C775.582 8.73 776.344 9.03 776.848 9.63C777.352 10.23 777.604 11.166 777.604 12.438V18H775.354V12.528C775.354 11.808 775.234 11.292 774.994 10.98C774.754 10.656 774.37 10.494 773.842 10.494C773.218 10.494 772.726 10.716 772.366 11.16C772.006 11.592 771.826 12.18 771.826 12.924V18H769.576V12.528C769.576 11.808 769.456 11.292 769.216 10.98C768.976 10.656 768.592 10.494 768.064 10.494C767.44 10.494 766.948 10.716 766.588 11.16C766.24 11.592 766.066 12.18 766.066 12.924V18H763.816ZM784.397 18.18C782.873 18.18 781.679 17.76 780.815 16.92C779.951 16.08 779.519 14.928 779.519 13.464C779.519 12.516 779.705 11.688 780.077 10.98C780.449 10.272 780.965 9.72 781.625 9.324C782.297 8.928 783.077 8.73 783.965 8.73C784.841 8.73 785.573 8.916 786.161 9.288C786.749 9.66 787.193 10.182 787.493 10.854C787.805 11.526 787.961 12.312 787.961 13.212V13.806H781.337V12.618H786.359L786.053 12.87C786.053 12.03 785.873 11.388 785.513 10.944C785.165 10.5 784.655 10.278 783.983 10.278C783.239 10.278 782.663 10.542 782.255 11.07C781.859 11.598 781.661 12.336 781.661 13.284V13.518C781.661 14.502 781.901 15.24 782.381 15.732C782.873 16.212 783.563 16.452 784.451 16.452C784.967 16.452 785.447 16.386 785.891 16.254C786.347 16.11 786.779 15.882 787.187 15.57L787.853 17.082C787.421 17.43 786.905 17.7 786.305 17.892C785.705 18.084 785.069 18.18 784.397 18.18Z" fill="#1F1534"/>
<path opacity="0.5" d="M842.724 18.162C841.704 18.162 840.792 18.03 839.988 17.766C839.184 17.502 838.482 17.124 837.882 16.632L838.422 15.444C838.842 15.756 839.262 16.02 839.682 16.236C840.114 16.44 840.576 16.596 841.068 16.704C841.56 16.8 842.112 16.848 842.724 16.848C843.792 16.848 844.584 16.65 845.1 16.254C845.616 15.858 845.874 15.33 845.874 14.67C845.874 14.106 845.694 13.674 845.334 13.374C844.974 13.074 844.344 12.834 843.444 12.654L841.554 12.276C840.39 12.036 839.52 11.646 838.944 11.106C838.38 10.566 838.098 9.834 838.098 8.91C838.098 8.154 838.29 7.494 838.674 6.93C839.07 6.366 839.622 5.928 840.33 5.616C841.038 5.304 841.86 5.148 842.796 5.148C843.696 5.148 844.518 5.286 845.262 5.562C846.006 5.826 846.642 6.216 847.17 6.732L846.648 7.884C846.084 7.38 845.49 7.02 844.866 6.804C844.254 6.576 843.558 6.462 842.778 6.462C841.794 6.462 841.014 6.678 840.438 7.11C839.874 7.53 839.592 8.106 839.592 8.838C839.592 9.426 839.772 9.888 840.132 10.224C840.492 10.548 841.086 10.794 841.914 10.962L843.822 11.34C845.046 11.592 845.946 11.97 846.522 12.474C847.098 12.978 847.386 13.686 847.386 14.598C847.386 15.294 847.194 15.912 846.81 16.452C846.438 16.992 845.904 17.412 845.208 17.712C844.512 18.012 843.684 18.162 842.724 18.162ZM853.345 18.162C852.481 18.162 851.725 17.976 851.077 17.604C850.441 17.22 849.949 16.68 849.601 15.984C849.253 15.276 849.079 14.442 849.079 13.482C849.079 12.51 849.253 11.676 849.601 10.98C849.949 10.284 850.441 9.75 851.077 9.378C851.725 8.994 852.481 8.802 853.345 8.802C854.221 8.802 854.977 8.994 855.613 9.378C856.261 9.75 856.759 10.284 857.107 10.98C857.467 11.676 857.647 12.51 857.647 13.482C857.647 14.442 857.467 15.276 857.107 15.984C856.759 16.68 856.261 17.22 855.613 17.604C854.977 17.976 854.221 18.162 853.345 18.162ZM853.345 16.974C854.209 16.974 854.893 16.68 855.397 16.092C855.901 15.492 856.153 14.622 856.153 13.482C856.153 12.33 855.895 11.46 855.379 10.872C854.875 10.272 854.197 9.972 853.345 9.972C852.493 9.972 851.815 10.272 851.311 10.872C850.807 11.46 850.555 12.33 850.555 13.482C850.555 14.622 850.807 15.492 851.311 16.092C851.815 16.68 852.493 16.974 853.345 16.974ZM864.456 18.162C863.64 18.162 862.938 17.958 862.35 17.55C861.762 17.13 861.366 16.56 861.162 15.84H861.36V18H859.92V4.752H861.378V11.07H861.162C861.366 10.374 861.762 9.822 862.35 9.414C862.938 9.006 863.64 8.802 864.456 8.802C865.272 8.802 865.974 8.994 866.562 9.378C867.162 9.75 867.624 10.284 867.948 10.98C868.284 11.676 868.452 12.51 868.452 13.482C868.452 14.454 868.284 15.288 867.948 15.984C867.612 16.68 867.144 17.22 866.544 17.604C865.956 17.976 865.26 18.162 864.456 18.162ZM864.15 16.974C865.002 16.974 865.686 16.68 866.202 16.092C866.718 15.504 866.976 14.634 866.976 13.482C866.976 12.33 866.718 11.46 866.202 10.872C865.686 10.272 865.002 9.972 864.15 9.972C863.298 9.972 862.614 10.272 862.098 10.872C861.594 11.46 861.342 12.33 861.342 13.482C861.342 14.622 861.594 15.492 862.098 16.092C862.614 16.68 863.298 16.974 864.15 16.974ZM870.677 18V11.142C870.677 10.782 870.665 10.416 870.641 10.044C870.629 9.672 870.605 9.312 870.569 8.964H871.973L872.153 11.16L871.901 11.178C872.021 10.638 872.231 10.194 872.531 9.846C872.831 9.498 873.185 9.24 873.593 9.072C874.001 8.892 874.427 8.802 874.871 8.802C875.051 8.802 875.207 8.808 875.339 8.82C875.483 8.832 875.615 8.862 875.735 8.91L875.717 10.206C875.537 10.146 875.369 10.11 875.213 10.098C875.069 10.074 874.901 10.062 874.709 10.062C874.181 10.062 873.719 10.188 873.323 10.44C872.939 10.692 872.645 11.016 872.441 11.412C872.249 11.808 872.153 12.228 872.153 12.672V18H870.677ZM881.161 18.162C879.745 18.162 878.629 17.754 877.813 16.938C876.997 16.11 876.589 14.964 876.589 13.5C876.589 12.552 876.769 11.73 877.129 11.034C877.489 10.326 877.993 9.78 878.641 9.396C879.289 9 880.033 8.802 880.873 8.802C881.701 8.802 882.397 8.976 882.961 9.324C883.525 9.672 883.957 10.17 884.257 10.818C884.557 11.454 884.707 12.21 884.707 13.086V13.626H877.705V12.708H883.753L883.447 12.942C883.447 11.982 883.231 11.232 882.799 10.692C882.367 10.152 881.725 9.882 880.873 9.882C879.973 9.882 879.271 10.2 878.767 10.836C878.263 11.46 878.011 12.306 878.011 13.374V13.536C878.011 14.664 878.287 15.522 878.839 16.11C879.403 16.686 880.189 16.974 881.197 16.974C881.737 16.974 882.241 16.896 882.709 16.74C883.189 16.572 883.645 16.302 884.077 15.93L884.581 16.956C884.185 17.34 883.681 17.64 883.069 17.856C882.469 18.06 881.833 18.162 881.161 18.162Z" fill="#1F1534"/>
<path opacity="0.5" d="M938.662 18V6.57H934.18V5.31H944.62V6.57H940.156V18H938.662ZM944.878 18V11.142C944.878 10.782 944.866 10.416 944.842 10.044C944.83 9.672 944.806 9.312 944.77 8.964H946.174L946.354 11.16L946.102 11.178C946.222 10.638 946.432 10.194 946.732 9.846C947.032 9.498 947.386 9.24 947.794 9.072C948.202 8.892 948.628 8.802 949.072 8.802C949.252 8.802 949.408 8.808 949.54 8.82C949.684 8.832 949.816 8.862 949.936 8.91L949.918 10.206C949.738 10.146 949.57 10.11 949.414 10.098C949.27 10.074 949.102 10.062 948.91 10.062C948.382 10.062 947.92 10.188 947.524 10.44C947.14 10.692 946.846 11.016 946.642 11.412C946.45 11.808 946.354 12.228 946.354 12.672V18H944.878ZM955.362 18.162C953.946 18.162 952.83 17.754 952.014 16.938C951.198 16.11 950.79 14.964 950.79 13.5C950.79 12.552 950.97 11.73 951.33 11.034C951.69 10.326 952.194 9.78 952.842 9.396C953.49 9 954.234 8.802 955.074 8.802C955.902 8.802 956.598 8.976 957.162 9.324C957.726 9.672 958.158 10.17 958.458 10.818C958.758 11.454 958.908 12.21 958.908 13.086V13.626H951.906V12.708H957.954L957.648 12.942C957.648 11.982 957.432 11.232 957 10.692C956.568 10.152 955.926 9.882 955.074 9.882C954.174 9.882 953.472 10.2 952.968 10.836C952.464 11.46 952.212 12.306 952.212 13.374V13.536C952.212 14.664 952.488 15.522 953.04 16.11C953.604 16.686 954.39 16.974 955.398 16.974C955.938 16.974 956.442 16.896 956.91 16.74C957.39 16.572 957.846 16.302 958.278 15.93L958.782 16.956C958.386 17.34 957.882 17.64 957.27 17.856C956.67 18.06 956.034 18.162 955.362 18.162ZM961.139 18V8.964H962.597V18H961.139ZM960.959 6.912V5.274H962.759V6.912H960.959ZM965.428 18V11.052C965.428 10.716 965.41 10.374 965.374 10.026C965.35 9.666 965.32 9.312 965.284 8.964H966.688L966.868 10.944H966.652C966.916 10.248 967.336 9.72 967.912 9.36C968.5 8.988 969.178 8.802 969.946 8.802C971.014 8.802 971.818 9.09 972.358 9.666C972.91 10.23 973.186 11.124 973.186 12.348V18H971.728V12.438C971.728 11.586 971.554 10.968 971.206 10.584C970.87 10.188 970.342 9.99 969.622 9.99C968.782 9.99 968.116 10.248 967.624 10.764C967.132 11.28 966.886 11.97 966.886 12.834V18H965.428ZM979.413 18.162C978.609 18.162 977.907 17.976 977.307 17.604C976.707 17.22 976.239 16.68 975.903 15.984C975.579 15.288 975.417 14.454 975.417 13.482C975.417 12.498 975.579 11.658 975.903 10.962C976.239 10.266 976.707 9.732 977.307 9.36C977.907 8.988 978.609 8.802 979.413 8.802C980.229 8.802 980.931 9.012 981.519 9.432C982.119 9.84 982.515 10.398 982.707 11.106H982.491L982.689 8.964H984.093C984.057 9.312 984.021 9.666 983.985 10.026C983.961 10.374 983.949 10.716 983.949 11.052V18H982.491V15.876H982.689C982.497 16.584 982.101 17.142 981.501 17.55C980.901 17.958 980.205 18.162 979.413 18.162ZM979.701 16.974C980.565 16.974 981.249 16.68 981.753 16.092C982.257 15.492 982.509 14.622 982.509 13.482C982.509 12.33 982.257 11.46 981.753 10.872C981.249 10.272 980.565 9.972 979.701 9.972C978.849 9.972 978.165 10.272 977.649 10.872C977.145 11.46 976.893 12.33 976.893 13.482C976.893 14.622 977.145 15.492 977.649 16.092C978.165 16.68 978.849 16.974 979.701 16.974ZM986.732 18V11.142C986.732 10.782 986.72 10.416 986.696 10.044C986.684 9.672 986.66 9.312 986.624 8.964H988.028L988.208 11.16L987.956 11.178C988.076 10.638 988.286 10.194 988.586 9.846C988.886 9.498 989.24 9.24 989.648 9.072C990.056 8.892 990.482 8.802 990.926 8.802C991.106 8.802 991.262 8.808 991.394 8.82C991.538 8.832 991.67 8.862 991.79 8.91L991.772 10.206C991.592 10.146 991.424 10.11 991.268 10.098C991.124 10.074 990.956 10.062 990.764 10.062C990.236 10.062 989.774 10.188 989.378 10.44C988.994 10.692 988.7 11.016 988.496 11.412C988.304 11.808 988.208 12.228 988.208 12.672V18H986.732Z" fill="#1F1534"/>
<path d="M7.71094 9V11.5H0.484375V9H7.71094ZM2.125 6.125H5.45313V17.3125C5.45313 17.6198 5.5 17.8594 5.59375 18.0312C5.6875 18.1979 5.81771 18.3151 5.98438 18.3828C6.15625 18.4505 6.35417 18.4844 6.57813 18.4844C6.73438 18.4844 6.89063 18.4714 7.04688 18.4453C7.20312 18.4141 7.32292 18.3906 7.40625 18.375L7.92969 20.8516C7.76302 20.9036 7.52865 20.9635 7.22656 21.0313C6.92448 21.1042 6.55729 21.1484 6.125 21.1641C5.32292 21.1953 4.61979 21.0885 4.01563 20.8437C3.41667 20.599 2.95052 20.2187 2.61719 19.7031C2.28385 19.1875 2.11979 18.5365 2.125 17.75V6.125ZM9.87891 21V9H13.1055V11.0937H13.2305C13.4492 10.349 13.8164 9.78646 14.332 9.40625C14.8477 9.02083 15.4414 8.82812 16.1133 8.82812C16.2799 8.82812 16.4596 8.83854 16.6523 8.85937C16.8451 8.88021 17.0143 8.90885 17.1602 8.94531V11.8984C17.0039 11.8516 16.7878 11.8099 16.5117 11.7734C16.2357 11.737 15.9831 11.7188 15.7539 11.7188C15.2643 11.7188 14.8268 11.8255 14.4414 12.0391C14.0612 12.2474 13.7591 12.5391 13.5352 12.9141C13.3164 13.2891 13.207 13.7214 13.207 14.2109V21H9.87891ZM23.791 21.2344C22.5566 21.2344 21.4941 20.9844 20.6035 20.4844C19.7181 19.9792 19.0358 19.2656 18.5566 18.3437C18.0775 17.4167 17.8379 16.3203 17.8379 15.0547C17.8379 13.8203 18.0775 12.737 18.5566 11.8047C19.0358 10.8724 19.7103 10.1458 20.5801 9.625C21.4551 9.10417 22.4811 8.84375 23.6582 8.84375C24.4499 8.84375 25.1868 8.97135 25.8691 9.22656C26.5566 9.47656 27.1556 9.85417 27.666 10.3594C28.1816 10.8646 28.5827 11.5 28.8691 12.2656C29.1556 13.026 29.2988 13.9167 29.2988 14.9375V15.8516H19.166V13.7891H26.166C26.166 13.3099 26.0618 12.8854 25.8535 12.5156C25.6452 12.1458 25.3561 11.8568 24.9863 11.6484C24.6217 11.4349 24.1973 11.3281 23.7129 11.3281C23.2077 11.3281 22.7598 11.4453 22.3691 11.6797C21.9837 11.9089 21.6816 12.2187 21.4629 12.6094C21.2441 12.9948 21.1322 13.4245 21.127 13.8984V15.8594C21.127 16.4531 21.2363 16.9661 21.4551 17.3984C21.679 17.8307 21.9941 18.1641 22.4004 18.3984C22.8066 18.6328 23.2884 18.75 23.8457 18.75C24.2155 18.75 24.554 18.6979 24.8613 18.5938C25.1686 18.4896 25.4316 18.3333 25.6504 18.125C25.8691 17.9167 26.0358 17.6615 26.1504 17.3594L29.2285 17.5625C29.0723 18.3021 28.752 18.9479 28.2676 19.5C27.7884 20.0469 27.1686 20.474 26.4082 20.7813C25.653 21.0833 24.7806 21.2344 23.791 21.2344ZM31.4707 21V9H34.7988V21H31.4707ZM33.1426 7.45312C32.6478 7.45312 32.2233 7.28906 31.8691 6.96094C31.5202 6.6276 31.3457 6.22917 31.3457 5.76562C31.3457 5.30729 31.5202 4.91406 31.8691 4.58594C32.2233 4.2526 32.6478 4.08594 33.1426 4.08594C33.6374 4.08594 34.0592 4.2526 34.4082 4.58594C34.7624 4.91406 34.9395 5.30729 34.9395 5.76562C34.9395 6.22917 34.7624 6.6276 34.4082 6.96094C34.0592 7.28906 33.6374 7.45312 33.1426 7.45312ZM40.793 14.0625V21H37.4648V9H40.6367V11.1172H40.7773C41.043 10.4193 41.4883 9.86719 42.1133 9.46094C42.7383 9.04948 43.4961 8.84375 44.3867 8.84375C45.2201 8.84375 45.9466 9.02604 46.5664 9.39062C47.1862 9.75521 47.668 10.276 48.0117 10.9531C48.3555 11.625 48.5273 12.4271 48.5273 13.3594V21H45.1992V13.9531C45.2044 13.2187 45.0169 12.6458 44.6367 12.2344C44.2565 11.8177 43.7331 11.6094 43.0664 11.6094C42.6185 11.6094 42.2227 11.7057 41.8789 11.8984C41.5404 12.0911 41.2747 12.3724 41.082 12.7422C40.8945 13.1068 40.7982 13.5469 40.793 14.0625ZM56.6191 21.2344C55.3848 21.2344 54.3223 20.9844 53.4316 20.4844C52.5462 19.9792 51.8639 19.2656 51.3848 18.3437C50.9056 17.4167 50.666 16.3203 50.666 15.0547C50.666 13.8203 50.9056 12.737 51.3848 11.8047C51.8639 10.8724 52.5384 10.1458 53.4082 9.625C54.2832 9.10417 55.3092 8.84375 56.4863 8.84375C57.278 8.84375 58.015 8.97135 58.6973 9.22656C59.3848 9.47656 59.9837 9.85417 60.4941 10.3594C61.0098 10.8646 61.4108 11.5 61.6973 12.2656C61.9837 13.026 62.127 13.9167 62.127 14.9375V15.8516H51.9941V13.7891H58.9941C58.9941 13.3099 58.89 12.8854 58.6816 12.5156C58.4733 12.1458 58.1842 11.8568 57.8145 11.6484C57.4499 11.4349 57.0254 11.3281 56.541 11.3281C56.0358 11.3281 55.5879 11.4453 55.1973 11.6797C54.8118 11.9089 54.5098 12.2187 54.291 12.6094C54.0723 12.9948 53.9603 13.4245 53.9551 13.8984V15.8594C53.9551 16.4531 54.0645 16.9661 54.2832 17.3984C54.5072 17.8307 54.8223 18.1641 55.2285 18.3984C55.6348 18.6328 56.1165 18.75 56.6738 18.75C57.0436 18.75 57.3822 18.6979 57.6895 18.5938C57.9967 18.4896 58.2598 18.3333 58.4785 18.125C58.6973 17.9167 58.8639 17.6615 58.9785 17.3594L62.0566 17.5625C61.9004 18.3021 61.5801 18.9479 61.0957 19.5C60.6165 20.0469 59.9967 20.474 59.2363 20.7813C58.4811 21.0833 57.6087 21.2344 56.6191 21.2344ZM66.2441 21.2031C65.7285 21.2031 65.2858 21.0208 64.916 20.6562C64.5514 20.2865 64.3691 19.8437 64.3691 19.3281C64.3691 18.8177 64.5514 18.3802 64.916 18.0156C65.2858 17.651 65.7285 17.4687 66.2441 17.4687C66.7441 17.4687 67.1816 17.651 67.5566 18.0156C67.9316 18.3802 68.1191 18.8177 68.1191 19.3281C68.1191 19.6719 68.0306 19.987 67.8535 20.2734C67.6816 20.5547 67.4551 20.7812 67.1738 20.9531C66.8926 21.1198 66.5827 21.2031 66.2441 21.2031ZM70.8516 21V9H74.0234V11.1172H74.1641C74.4141 10.4141 74.8307 9.85937 75.4141 9.45312C75.9974 9.04687 76.6953 8.84375 77.5078 8.84375C78.3307 8.84375 79.0313 9.04948 79.6094 9.46094C80.1875 9.86719 80.5729 10.4193 80.7656 11.1172H80.8906C81.1354 10.4297 81.5781 9.88021 82.2188 9.46875C82.8646 9.05208 83.6276 8.84375 84.5078 8.84375C85.6276 8.84375 86.5365 9.20052 87.2344 9.91406C87.9375 10.6224 88.2891 11.6276 88.2891 12.9297V21H84.9688V13.5859C84.9688 12.9193 84.7917 12.4193 84.4375 12.0859C84.0833 11.7526 83.6406 11.5859 83.1094 11.5859C82.5052 11.5859 82.0339 11.7786 81.6953 12.1641C81.3568 12.5443 81.1875 13.0469 81.1875 13.6719V21H77.9609V13.5156C77.9609 12.9271 77.7917 12.4583 77.4531 12.1094C77.1198 11.7604 76.6797 11.5859 76.1328 11.5859C75.763 11.5859 75.4297 11.6797 75.1328 11.8672C74.8411 12.0495 74.6094 12.3073 74.4375 12.6406C74.2656 12.9687 74.1797 13.3542 74.1797 13.7969V21H70.8516ZM96.3867 21.2344C95.1523 21.2344 94.0898 20.9844 93.1992 20.4844C92.3138 19.9792 91.6315 19.2656 91.1523 18.3437C90.6732 17.4167 90.4336 16.3203 90.4336 15.0547C90.4336 13.8203 90.6732 12.737 91.1523 11.8047C91.6315 10.8724 92.306 10.1458 93.1758 9.625C94.0508 9.10417 95.0768 8.84375 96.2539 8.84375C97.0456 8.84375 97.7826 8.97135 98.4648 9.22656C99.1523 9.47656 99.7513 9.85417 100.262 10.3594C100.777 10.8646 101.178 11.5 101.465 12.2656C101.751 13.026 101.895 13.9167 101.895 14.9375V15.8516H91.7617V13.7891H98.7617C98.7617 13.3099 98.6576 12.8854 98.4492 12.5156C98.2409 12.1458 97.9518 11.8568 97.582 11.6484C97.2174 11.4349 96.793 11.3281 96.3086 11.3281C95.8034 11.3281 95.3555 11.4453 94.9648 11.6797C94.5794 11.9089 94.2773 12.2187 94.0586 12.6094C93.8398 12.9948 93.7279 13.4245 93.7227 13.8984V15.8594C93.7227 16.4531 93.832 16.9661 94.0508 17.3984C94.2747 17.8307 94.5898 18.1641 94.9961 18.3984C95.4023 18.6328 95.8841 18.75 96.4414 18.75C96.8112 18.75 97.1497 18.6979 97.457 18.5938C97.7643 18.4896 98.0273 18.3333 98.2461 18.125C98.4648 17.9167 98.6315 17.6615 98.7461 17.3594L101.824 17.5625C101.668 18.3021 101.348 18.9479 100.863 19.5C100.384 20.0469 99.7643 20.474 99.0039 20.7813C98.2487 21.0833 97.3763 21.2344 96.3867 21.2344Z" fill="#89C5CC"/>
</svg>
